<svg viewBox="0 0 473.41505 219.01376" height="100%" width="100%">
	  <g
	      style="display:inline"
	      transform="translate(-18.604081,-549.44436)"
	      id="layer1">

	    <ellipse
		cx="220.6268"
		cy="709.99384"
		rx="71.279228"
		ry="49.464283"
		id="ell1"/>
	    <ellipse
		transform="matrix(0.87212828,0.48927728,-0.48927728,0.87212828,0,0)"
		ry="82.750229"
		rx="126.17181"
		cy="392.26016"
		cx="638.31531"
		id="ell2"/>

	    <rect
		y="636.98016"
		x="29.381081"
		height="51.202106"
		width="99.752563"
		id="rect-qt"/>
	    <rect
		y="688.18225"
		x="29.381081"
		height="51.202106"
		width="99.752563"
		id="rect-bt"/>
	    <rect
		y="691.57135"
		x="169.40944"
		height="35.844963"
		width="111.89542"
		id="rect-ct"/>
	    <rect
		y="578.32141"
		x="267.76657"
		height="35.844963"
		width="111.89542"
		id="rect-rt"/>
	    <rect
		y="691.03564"
		x="360.12372"
		height="35.844963"
		width="111.89542"
		id="rect-pt"/>
	    <path
		id="path-gammat"
		d="M 90.913729,637.48527 C 19.399107,599.16944 141.91314,549.57536 267.76657,578.32141"/>
	    <path
		id="path-phit"
		d="m 169.40944,709.49384 -40.12373,0"/>
	    <path
		id="path-c2"
		d="m 281.96429,705.20813 77.67857,0"/>
	    <path
		id="path-c1"
		d="m 281.96429,693.20812 77.67857,0"/>
	    <g id="g-mu">
	      <path
		  d="m 281.96429,715.20812 77.67857,0"
		  id="path3413-6" />
	      <path
		  d="m 281.96429,723.20812 77.67857,0"
		  id="path3413-2"/>
	    </g>
	    <path
		id="path-s1"
		d="M 274.10714,613.95813 207.5,690.92242"/>
	    <path
		id="path-b1"
		d="M 290.10714,613.95813 223.5,690.92242"/>
	    <g id="g-alpha">
	      <path
		  d="M 310.10714,613.95813 243.5,690.92242"
		  id="path3448-2" />
	      <path
		  d="M 324.10714,613.95813 257.5,690.92242"
		  id="path3448-7" />
	    </g>
	    <g id="g-gamma">
	      <path
		  d="m 323.5,613.95813 66.60714,76.96429"
		  id="path3448-7-0" />
	      <path
		  d="m 335.5,613.95813 66.60714,76.96429"
		  id="path3448-7-0-9" />
	    </g>
	    <path
		id="path-b2"
		d="m 351.5,613.95813 66.60714,76.96429"/>
	    <path
		id="path-s2"
		d="m 371.5,613.95813 66.60714,76.96429"/>
	</svg>
