<svg viewBox="0 0 473.41505 219.01376" height="100%" width="100%">

  <g
     style="display:inline"
     id="layer2">

    <path
       id="ell1"
       d="m 206.75391,111.87501 a 71.279228,52.464283 0 0 0 -71.2793,52.46484 71.279228,52.464283 0 0 0 71.2793,52.46289 71.279228,52.464283 0 0 0 71.27929,-52.46289 71.279228,52.464283 0 0 0 -5.00976,-19.28125 135.97807,76.974968 29.29309 0 1 -20.7793,-21.08593 71.279228,52.464283 0 0 0 -45.49023,-12.09766 z" />

    <ellipse
       transform="matrix(0.87212828,0.48927728,-0.48927728,0.87212828,0,0)"
       ry="76.974968"
       rx="135.97807"
       cy="-79.073769"
       cx="356.71329"
       id="ell2" />

    <text
       id="text5354-1"
       y="135.29323"
       x="61.142761"
       style="font-style:normal;font-weight:normal;font-size:7.5px;line-height:150%;font-family:sans-serif;text-align:center;letter-spacing:0px;word-spacing:0px;writing-mode:lr-tb;text-anchor:middle;fill:#000000;fill-opacity:1;stroke:none;stroke-width:1px;stroke-linecap:butt;stroke-linejoin:miter;stroke-opacity:1"
       xml:space="preserve"><tspan
         style="font-size:7.5px;line-height:150%;text-align:center;writing-mode:lr-tb;text-anchor:middle"
         y="135.29323"
         x="61.142761"
         id="tspan5356-8">Comportements</tspan><tspan
         style="font-size:7.5px;line-height:150%;text-align:center;writing-mode:lr-tb;text-anchor:middle"
         id="tspan5358-7"
         y="146.54323"
         x="61.142761">du quotidien</tspan></text>

    <g
	id="gr-qt"
	class="rectMod">
      <text
         xml:space="preserve"
         x="94"
         y="115.20227"
         id="text5601"><tspan
           id="tspan5603"
           x="94"
           y="115.20227"
           style="font-size:7.5px">q(t)</tspan></text>
      <rect
          id="rect-qt"
         width="99.752563"
         height="51.202106"
         x="10.776999"
         y="87.535797" />
    </g>

    <g
	id="gr-bt"
	class="rectMod">
      <text
          xml:space="preserve"
          x="94"
          y="166.69366"
          id="text5601-0"><tspan
			      id="tspan5603-8"
			      x="94"
			      y="166.69366">b(t)</tspan></text>
      <rect
          id="rect-bt"
          width="99.752563"
          height="51.202106"
          x="10.776999"
          y="138.73788" />
    </g>

    <g
	id="gr-ct"
	class="rectMod">
      <text
          xml:space="preserve"
          x="206.73193"
          y="162.44374"
          id="text5354"><tspan
			    id="tspan5356"
			    x="206.73193"
			    y="162.44374"
			    style="font-size:7.5px">c(t) = Comportements</tspan><tspan
			    x="206.73193"
			    y="171.81874"
			    id="tspan5358"
			    style="font-size:7.5px">Contrôlés</tspan></text>
      <rect
          id="rect-ct"
          width="111.89542"
          height="35.844963"
          x="150.80536"
          y="146.41646" />
    </g>

    <g
	id="gr-rt"
	class="rectMod">
      <text
          xml:space="preserve"
          x="301.95456"
          y="44.9044"
          id="text5354-3"><tspan
			      id="tspan5356-6"
			      x="301.95456"
			      y="44.9044"
			      style="font-size:7.5px">r(t) = Comportements</tspan><tspan
			      x="301.95456"
			      y="54.2794"
			      id="tspan5358-0"
			      style="font-size:7.5px">Réflexes</tspan></text>
      <rect
          id="rect-rt"
          width="111.89542"
          height="35.844963"
          x="246.16249"
          y="28.877062" />
    </g>

    <g
	id="gr-pt"
	class="rectMod">
      <text
          xml:space="preserve"
          x="397.31171"
          y="161.71687"
          id="text5354-3-6"><tspan
				id="tspan5356-6-2"
				x="397.31171"
				y="161.71687"
				style="font-size:7.5px">p(t) = Comportements</tspan><tspan
				x="397.31171"
				y="171.09187"
				id="tspan5358-0-6"
				style="font-size:7.5px">de Panique</tspan></text>
      <rect
          id="rect-pt"
          width="111.89542"
          height="35.844963"
          x="341.51962"
          y="146.41646" />
    </g>


    <g
	id="gr-a1"
	class="arrow arrowImit">
      <text
         xml:space="preserve"
         x="221.45982"
         y="127.01376"
         id="text5601-1-3"><tspan
           id="tspan5603-0-46"
           x="221.45982"
           y="127.01376"
           style="font-size:5px">α<tspan
   style="font-size:64.99999762%;baseline-shift:sub"
   id="tspan8448-3">1</tspan></tspan></text>
      <g
         transform="translate(0,2.1998811e-6)"
         id="g8880">
        <path
           d="m 286.11133,64.384766 -70.08203,76.873044 0.73828,0.67383 70.08203,-76.873046 -0.73828,-0.673828 z"
           id="path3448-2" />
        <path
           d="m 226.8793,136.68338 -11.36301,5.90401 4.83111,-11.859 c 0.63464,3.17681 3.28023,5.57376 6.5319,5.95499 z"
           id="path8886" />
      </g>
    </g>





    <g
	id="gr-d1"
	class="arrow arrowImit">
      <text
         xml:space="preserve"
         x="362.07776"
         y="127.01376"
         id="text5601-1-3-8"><tspan
           id="tspan5603-0-46-9"
           x="362.07776"
           y="127.01376"
           style="font-size:5px">δ<tspan
   style="font-size:64.99999762%;baseline-shift:sub"
   id="tspan8448-3-0">1</tspan></tspan></text>
      <g
         transform="translate(0,2.1998811e-6)"
         id="g8856">
        <path
           d="m 302.84961,64.384766 -0.73828,0.673828 69.96484,76.873046 0.73828,-0.67383 -69.96484,-76.873044 z"
           id="path3448-7-0" />
        <path
           d="m 368.5308,130.70137 4.82115,11.86304 -11.35805,-5.91354 c 3.22207,-0.33631 5.85478,-2.74741 6.5369,-5.9495 z"
           id="path8862" />
      </g>
    </g>


    <g
	id="gr-b2"
	class="arrow">
      <text
         xml:space="preserve"
         x="393.90686"
         y="127.01376"
         id="text5601-1-5-8"><tspan
           id="tspan5603-0-4-3"
           x="393.90686"
           y="127.01376"
           style="font-size:5px">B<tspan
   style="font-size:64.99999762%;baseline-shift:sub"
   id="tspan8448-9-8">2</tspan></tspan></text>
      <g
         transform="translate(0,2.1998811e-6)"
         id="g8840">
        <path
           d="m 334.84961,64.384766 -0.73828,0.673828 69.96484,76.873046 0.73828,-0.67383 -69.96484,-76.873044 z"
           id="path-b2" />
        <path
           d="m 400.5308,130.70137 4.82115,11.86304 -11.35805,-5.91354 c 3.22207,-0.33631 5.85478,-2.74741 6.5369,-5.9495 z"
           id="path8846" />
      </g>
    </g>


    <g
	id="gr-s1"
	class="arrow">
      <text
         xml:space="preserve"
         x="231.53694"
         y="79.263763"
         id="text5601-1"><tspan
           id="tspan5603-0"
           x="231.53694"
           y="79.263763"
           style="font-size:5px">S<tspan
   style="font-size:64.99999762%;baseline-shift:sub"
   id="tspan8448">1</tspan></tspan></text>
      <g
         transform="translate(0,2.1998811e-6)"
         id="g8864">
        <path
           d="m 245.85938,73.435547 0.73828,0.673828 4.04296,-4.433594 -0.73828,-0.673828 z m -8.08399,8.869141 0.73828,0.673828 4.04297,-4.433594 -0.74023,-0.673828 z m -8.08594,8.867187 0.74024,0.673828 4.04101,-4.433594 -0.73828,-0.673828 z m -8.08398,8.867185 0.73828,0.67383 4.04297,-4.433593 -0.73828,-0.673828 z m -8.08399,8.86914 0.73829,0.67383 4.04296,-4.43359 -0.74023,-0.67383 z m -8.08593,8.86719 0.74023,0.67383 4.04102,-4.4336 -0.73828,-0.67382 z m -8.08399,8.86719 0.73828,0.67383 4.04297,-4.4336 -0.73828,-0.67383 z m -8.08398,8.86914 0.73828,0.67383 4.04297,-4.4336 -0.74024,-0.67383 z m -8.08594,8.86719 0.74024,0.67382 4.04101,-4.43359 -0.73828,-0.67383 z"
           id="path-s1" />
        <path
           d="m 239.78978,74.25005 11.36301,-5.904003 -4.83111,11.858996 c -0.63464,-3.176805 -3.28023,-5.573758 -6.5319,-5.954993 z"
           id="path8870" />
      </g>
    </g>



 <g
     id="gr-c1"
     class="arrow">
    <text
       xml:space="preserve"
       x="283.15686"
       y="150.3401"
       id="text5601-1-5-5"><tspan
         id="tspan5603-0-4-2"
         x="283.15686"
         y="150.3401"
         style="font-size:5px">C<tspan
   style="font-size:64.99999762%;baseline-shift:sub"
   id="tspan8448-9-2">1</tspan></tspan></text>
    <g
       transform="translate(0,2.1998811e-6)"
       id="g8896">
      <path
         d="m 267.20117,151.83984 0,1 74.31836,0 0,-1 -74.31836,0 z"
         id="path-c1" />
      <path
         d="m 277.89123,156.77606 -12.01847,-4.4195 12.01847,-4.41949 c -1.92005,2.60927 -1.90899,6.1792 0,8.83899 z"
         id="path8902" />
    </g>
 </g>


  <g
      id="gr-mu1"
      class="arrow arrowImit">
    <text
       xml:space="preserve"

       x="283.01282"
       y="166.44044"
       id="text5601-1-3-4"><tspan
         id="tspan5603-0-46-4"
         x="283.01282"
         y="166.44044"
         style="font-size:5px">μ<tspan
   style="font-size:64.99999762%;baseline-shift:sub"
   id="tspan8448-3-39">1</tspan></tspan></text>
    <g
       transform="translate(0,2.1998811e-6)"
       id="g8912">
      <path
	  d="m 267.20117,167.95312 0,0.97461 73.31836,0 0,-0.97461 -73.31836,0 z"
         id="path3413-6" />
      <path
         id="path8918"
         d="m 277.61996,172.76497 -11.7135,-4.30735 11.7135,-4.30735 c -1.87133,2.54306 -1.86054,6.0224 0,8.6147 z" />
    </g>
  </g>


  <g
      id="gr-mu2"
      class="arrow arrowImit">
    <text
       xml:space="preserve"
       x="316.67227"
       y="174.24124"
       id="text5601-1-3-4-7"><tspan
         id="tspan5603-0-46-4-2"
         x="316.67227"
         y="174.24124"
         style="font-size:5px">μ<tspan
   style="font-size:64.99999762%;baseline-shift:sub"
   id="tspan8448-3-39-5">2</tspan></tspan></text>
    <g
       transform="translate(0,2.1998811e-6)"
       id="g8920">
      <path
         d="m 263.70117,175.75 0,0.97461 73.31836,0 0,-0.97461 -73.31836,0 z"
         id="path3413-2" />
      <path
         d="m 326.60044,171.91293 11.7135,4.30735 -11.7135,4.30735 c 1.87133,-2.54306 1.86054,-6.0224 0,-8.6147 z"
         id="path8926" />
    </g>
  </g>

<g
    id="gr-c2"
    class="arrow">
    <text
       xml:space="preserve"
       x="316.35977"
       y="158.33894"
       id="text5601-1-5-5-2"><tspan
         id="tspan5603-0-4-2-7"
         x="316.35977"
         y="158.33894"
         style="font-size:5px">C<tspan
   style="font-size:64.99999762%;baseline-shift:sub"
   id="tspan8448-9-2-0">2</tspan></tspan></text>
    <g
       transform="translate(0,2.1998811e-6)"
       id="g8904">
      <path
         d="m 262.70117,159.83984 0,1 74.31836,0 0,-1 -74.31836,0 z"
         id="path-c2" />
      <path
         id="path8910"
         d="m 326.32917,155.90184 12.01847,4.4195 -12.01847,4.41949 c 1.92005,-2.60927 1.90899,-6.1792 0,-8.83899 z" />
    </g>
  </g>


    <g
	id="Forcage"
	class="arrow">
      <text
         xml:space="preserve"

         id="text5595"
         x="130.77786"
         y="12.333815"><tspan
   id="tspan5599">Forçage γ(t)</tspan></text>
      <g
         transform="translate(0,2.1998811e-6)"
         id="g8936">
        <path
           d="m 165.76758,14.519531 c -24.46286,-0.04396 -47.39836,3.60304 -66.101564,9.962891 C 80.962815,30.842272 66.47688,39.9089 58.945312,50.806641 51.413745,61.704381 50.948174,74.482043 60.242188,87.822266 L 61.064453,87.25 C 51.948402,74.165217 52.430329,61.991573 59.767578,51.375 67.104828,40.758427 81.408888,31.746774 99.986328,25.429688 137.14121,12.795514 191.3218,10.915719 240.70898,27.654297 l 0.32032,-0.947266 c -24.80952,-8.408579 -50.79886,-12.143544 -75.26172,-12.1875 z"
           id="path-gammat" />
        <path
           d="m 232.16843,19.547066 9.96386,8.043438 -12.8011,0.327812 c 2.656,-1.854874 3.79143,-5.239443 2.83724,-8.37125 z"
           id="path8942" />
      </g>
    </g>


    <g
	id="gr-s2"
	class="arrow">
      <text
         xml:space="preserve"
         x="369.99307"
         y="79.263763"
         id="text5601-1-4"><tspan
           id="tspan5603-0-1"
           x="369.99307"
           y="79.263763"
           style="font-size:5px">S<tspan
   style="font-size:64.99999762%;baseline-shift:sub"
   id="tspan8448-5">2</tspan></tspan></text>
      <g
         transform="translate(0,2.1998811e-6)"
         id="g8826">
        <path
           d="m 354.29102,69.523438 4.0996,4.378906 0.73047,-0.681641 -4.10156,-4.380859 z m 8.20117,8.759765 4.09961,4.380859 0.73047,-0.683593 -4.10157,-4.38086 z m 8.19922,8.759766 4.10156,4.380859 0.73047,-0.683594 -4.10156,-4.380859 z m 8.20117,8.761719 4.10156,4.378902 0.73047,-0.68359 -4.10156,-4.378906 z m 8.20117,8.759762 4.10156,4.38086 0.73047,-0.68359 -4.10156,-4.38086 z m 8.20117,8.75977 4.10156,4.38086 0.73047,-0.6836 -4.10156,-4.38086 z m 8.20117,8.76172 4.10157,4.3789 0.72851,-0.68359 -4.09961,-4.37891 z m 8.20118,8.75976 4.10156,4.37891 0.72851,-0.68164 -4.09961,-4.38086 z m 8.20117,8.75977 4.10156,4.38086 0.72852,-0.6836 -4.09961,-4.38085 z"
           id="path-s2" />
        <path
           id="path8832"
           d="m 358.72213,80.018154 -4.98731,-11.794156 11.44,5.753417 c -3.21703,0.381541 -5.81561,2.829379 -6.45269,6.040739 z" />
      </g>
    </g>


    <g
	id="gr-d2"
	class="arrow arrowImit">
      <text
         xml:space="preserve"
         x="336.78561"
         y="79.263763"
         id="text5601-1-3-8-5"><tspan
           id="tspan5603-0-46-9-1"
           x="336.78561"
           y="79.263763"
           style="font-size:5px">δ<tspan
   style="font-size:64.99999762%;baseline-shift:sub"
   id="tspan8448-3-0-0">2</tspan></tspan></text>
      <g
         transform="translate(0,2.1998811e-6)"
         id="g8848">
        <path
           d="m 322.91602,68.84375 -0.74024,0.673828 70.41406,77.236332 0.73828,-0.67383 -70.4121,-77.23633 z"
           id="path3448-7-0-9" />
        <path
           id="path8854"
           d="m 326.46948,80.070924 -4.83111,-11.858996 11.36302,5.904006 c -3.22179,0.33902 -5.85247,2.752324 -6.53191,5.95499 z" />
      </g>
    </g>


    <g
	id="gr-a2"
	class="arrow arrowImit">
      <text
         xml:space="preserve"
         x="280.84753"
         y="79.263763"
         id="text5601-1-3-6"><tspan
           id="tspan5603-0-46-3"
           x="280.84753"
           y="79.263763"
           style="font-size:5px">α<tspan
   style="font-size:64.99999762%;baseline-shift:sub"
   id="tspan8448-3-3">2</tspan></tspan></text>
      <g
         transform="translate(0,2.1998811e-6)"
         id="g8888">
        <path
           d="m 298.04492,68.84375 -70.41211,77.23633 0.73828,0.67383 70.41407,-77.236332 -0.74024,-0.673828 z"
           id="path3448-7" />
        <path
           id="path8894"
           d="m 287.93366,74.092199 11.36301,-5.904006 -4.83111,11.858997 c -0.63464,-3.176805 -3.28023,-5.573757 -6.5319,-5.954991 z" />
      </g>
    </g>


    <g
	id="gr-b1"
	class="arrow">
      <text
         xml:space="preserve"
         x="205.86438"
         y="127.01376"
         id="text5601-1-5"><tspan
           id="tspan5603-0-4"
           x="205.86438"
           y="127.01376"
           style="font-size:5px">B<tspan
   style="font-size:64.99999762%;baseline-shift:sub"
   id="tspan8448-9">1</tspan></tspan></text>
      <g
         transform="translate(0,2.1998811e-6)"
         id="g8872">
        <path
           d="m 270.11133,64.384766 -70.08203,76.873044 0.73828,0.67383 70.08203,-76.873046 -0.73828,-0.673828 z"
           id="path-b1" />
        <path
           id="path8878"
           d="m 210.87931,136.68338 -11.36301,5.90401 4.83111,-11.859 c 0.63464,3.17681 3.28023,5.57376 6.5319,5.95499 z" />
      </g>
    </g>


    <g
	id="gr-phi"
	class="arrow">
      <g
         transform="translate(0,2.1998811e-6)"
         id="g8928">
        <path
           d="m 116.20312,163.83984 0,1 34.60157,0 0,-1 -34.60157,0 z"
           id="path-phit" />
        <path
           d="m 126.89448,168.77606 -12.01847,-4.4195 12.01847,-4.41949 c -1.92005,2.60927 -1.90899,6.1792 0,8.83899 z"
           id="path8934" />
      </g>
      <text
         xml:space="preserve"
         x="131.50391"
         y="161.83984"
         id="text5601-1-5-5-8"><tspan
           id="tspan5603-0-4-2-76"
           x="131.50391"
           y="161.83984"
           style="font-size:7.5px">φ(t)</tspan></text>
    </g>
  </g>

</svg>
