<?xml version="1.0" encoding="UTF-8" standalone="no"?>
<!-- Generator: Adobe Illustrator 19.1.0, SVG Export Plug-In . SVG Version: 6.00 Build 0)  -->

<svg
   xmlns:dc="http://purl.org/dc/elements/1.1/"
   xmlns:cc="http://creativecommons.org/ns#"
   xmlns:rdf="http://www.w3.org/1999/02/22-rdf-syntax-ns#"
   xmlns:svg="http://www.w3.org/2000/svg"
   xmlns="http://www.w3.org/2000/svg"
   xmlns:sodipodi="http://sodipodi.sourceforge.net/DTD/sodipodi-0.dtd"
   xmlns:inkscape="http://www.inkscape.org/namespaces/inkscape"
   version="1.1"
   id="Capa_1"
   x="0px"
   y="0px"
   viewBox="0 0 27.697001 43.856491"
   xml:space="preserve"
   width="323.35062"
   height="512.00574"
   inkscape:version="0.91 r13725"
   sodipodi:docname="placeholderred.svg"><metadata
     id="metadata39"><rdf:RDF><cc:Work
         rdf:about=""><dc:format>image/svg+xml</dc:format><dc:type
           rdf:resource="http://purl.org/dc/dcmitype/StillImage" /><dc:title></dc:title></cc:Work></rdf:RDF></metadata><defs
     id="defs37" /><sodipodi:namedview
     pagecolor="#ffffff"
     bordercolor="#666666"
     borderopacity="1"
     objecttolerance="10"
     gridtolerance="10"
     guidetolerance="10"
     inkscape:pageopacity="0"
     inkscape:pageshadow="2"
     inkscape:window-width="640"
     inkscape:window-height="480"
     id="namedview35"
     showgrid="false"
     inkscape:zoom="0.4609375"
     inkscape:cx="161.68113"
     inkscape:cy="256.00574"
     inkscape:window-x="0"
     inkscape:window-y="0"
     inkscape:window-maximized="0"
     inkscape:current-layer="Capa_1"
     fit-margin-top="0"
     fit-margin-left="0"
     fit-margin-right="0"
     fit-margin-bottom="0" /><path
     d="m 13.857,0 c 3.809,0 7.285,1.555 9.777,4.063 2.508,2.508 4.063,5.968 4.063,9.793 0,3.873 -2.492,8.539 -4.666,12.619 -0.667,1.238 -1.302,2.429 -1.809,3.492 l -6.365,13.254 c -0.27,0.556 -0.936,0.794 -1.492,0.524 -0.238,-0.111 -0.413,-0.302 -0.524,-0.524 l 0,0 L 6.476,29.967 C 5.968,28.904 5.333,27.713 4.682,26.475 2.492,22.396 0,17.729 0,13.856 0,10.031 1.555,6.57 4.063,4.063 6.572,1.555 10.032,0 13.857,0 l 0,0 z m 0,7.063 c 1.873,0 3.571,0.762 4.793,1.984 1.222,1.222 1.984,2.921 1.984,4.809 0,1.873 -0.762,3.571 -1.984,4.794 -1.222,1.222 -2.92,1.984 -4.793,1.984 -1.873,0 -3.571,-0.762 -4.809,-1.984 -1.222,-1.222 -1.984,-2.921 -1.984,-4.794 0,-1.889 0.762,-3.587 1.984,-4.809 1.238,-1.222 2.936,-1.984 4.809,-1.984 l 0,0 z m 3.206,3.572 C 16.238,9.81 15.111,9.302 13.857,9.302 c -1.27,0 -2.397,0.508 -3.222,1.333 -0.825,0.825 -1.333,1.952 -1.333,3.222 0,1.254 0.508,2.381 1.333,3.206 0.825,0.825 1.952,1.333 3.222,1.333 1.254,0 2.381,-0.508 3.206,-1.333 0.825,-0.825 1.333,-1.952 1.333,-3.206 10e-4,-1.27 -0.507,-2.397 -1.333,-3.222 l 0,0 z m 5,-4.984 c -2.111,-2.111 -5,-3.413 -8.206,-3.413 -3.206,0 -6.111,1.302 -8.206,3.413 -2.111,2.095 -3.413,5 -3.413,8.206 0,3.333 2.349,7.714 4.412,11.571 0.667,1.254 1.302,2.46 1.841,3.571 l 5.365,11.158 5.349,-11.158 c 0.54,-1.111 1.175,-2.317 1.841,-3.571 2.063,-3.857 4.412,-8.238 4.412,-11.571 0.002,-3.206 -1.3,-6.111 -3.395,-8.206 l 0,0 z"
     id="path3"
     style="fill:#ff0000"
     inkscape:connector-curvature="0" /><g
     id="g5"
     transform="translate(-8.079,0)" /><g
     id="g7"
     transform="translate(-8.079,0)" /><g
     id="g9"
     transform="translate(-8.079,0)" /><g
     id="g11"
     transform="translate(-8.079,0)" /><g
     id="g13"
     transform="translate(-8.079,0)" /><g
     id="g15"
     transform="translate(-8.079,0)" /><g
     id="g17"
     transform="translate(-8.079,0)" /><g
     id="g19"
     transform="translate(-8.079,0)" /><g
     id="g21"
     transform="translate(-8.079,0)" /><g
     id="g23"
     transform="translate(-8.079,0)" /><g
     id="g25"
     transform="translate(-8.079,0)" /><g
     id="g27"
     transform="translate(-8.079,0)" /><g
     id="g29"
     transform="translate(-8.079,0)" /><g
     id="g31"
     transform="translate(-8.079,0)" /><g
     id="g33"
     transform="translate(-8.079,0)" /></svg>