<?xml version="1.0" encoding="UTF-8" standalone="no"?>
<!-- Generator: Adobe Illustrator 19.1.0, SVG Export Plug-In . SVG Version: 6.00 Build 0)  -->

<svg
   xmlns:dc="http://purl.org/dc/elements/1.1/"
   xmlns:cc="http://creativecommons.org/ns#"
   xmlns:rdf="http://www.w3.org/1999/02/22-rdf-syntax-ns#"
   xmlns:svg="http://www.w3.org/2000/svg"
   xmlns="http://www.w3.org/2000/svg"
   xmlns:sodipodi="http://sodipodi.sourceforge.net/DTD/sodipodi-0.dtd"
   xmlns:inkscape="http://www.inkscape.org/namespaces/inkscape"
   version="1.1"
   id="Capa_1"
   x="0px"
   y="0px"
   viewBox="0 0 43.856 43.856"
   style="enable-background:new 0 0 43.856 43.856;"
   xml:space="preserve"
   width="512px"
   height="512px"
   inkscape:version="0.91 r13725"
   sodipodi:docname="placeholderred.svg"><metadata
     id="metadata39"><rdf:RDF><cc:Work
         rdf:about=""><dc:format>image/svg+xml</dc:format><dc:type
           rdf:resource="http://purl.org/dc/dcmitype/StillImage" /><dc:title></dc:title></cc:Work></rdf:RDF></metadata><defs
     id="defs37" /><sodipodi:namedview
     pagecolor="#ffffff"
     bordercolor="#666666"
     borderopacity="1"
     objecttolerance="10"
     gridtolerance="10"
     guidetolerance="10"
     inkscape:pageopacity="0"
     inkscape:pageshadow="2"
     inkscape:window-width="640"
     inkscape:window-height="480"
     id="namedview35"
     showgrid="false"
     inkscape:zoom="0.4609375"
     inkscape:cx="256"
     inkscape:cy="256"
     inkscape:window-x="0"
     inkscape:window-y="0"
     inkscape:window-maximized="0"
     inkscape:current-layer="Capa_1" /><path
     d="M21.936,0c3.809,0,7.285,1.555,9.777,4.063c2.508,2.508,4.063,5.968,4.063,9.793  c0,3.873-2.492,8.539-4.666,12.619c-0.667,1.238-1.302,2.429-1.809,3.492l-6.365,13.254c-0.27,0.556-0.936,0.794-1.492,0.524  c-0.238-0.111-0.413-0.302-0.524-0.524l0,0l-6.365-13.254c-0.508-1.063-1.143-2.254-1.794-3.492  c-2.19-4.079-4.682-8.746-4.682-12.619c0-3.825,1.555-7.286,4.063-9.793C14.651,1.555,18.111,0,21.936,0L21.936,0z M21.936,7.063  c1.873,0,3.571,0.762,4.793,1.984c1.222,1.222,1.984,2.921,1.984,4.809c0,1.873-0.762,3.571-1.984,4.794  c-1.222,1.222-2.92,1.984-4.793,1.984c-1.873,0-3.571-0.762-4.809-1.984c-1.222-1.222-1.984-2.921-1.984-4.794  c0-1.889,0.762-3.587,1.984-4.809C18.365,7.825,20.063,7.063,21.936,7.063L21.936,7.063z M25.142,10.635  c-0.825-0.825-1.952-1.333-3.206-1.333c-1.27,0-2.397,0.508-3.222,1.333c-0.825,0.825-1.333,1.952-1.333,3.222  c0,1.254,0.508,2.381,1.333,3.206c0.825,0.825,1.952,1.333,3.222,1.333c1.254,0,2.381-0.508,3.206-1.333  c0.825-0.825,1.333-1.952,1.333-3.206C26.476,12.587,25.968,11.46,25.142,10.635L25.142,10.635z M30.142,5.651  c-2.111-2.111-5-3.413-8.206-3.413c-3.206,0-6.111,1.302-8.206,3.413c-2.111,2.095-3.413,5-3.413,8.206  c0,3.333,2.349,7.714,4.412,11.571c0.667,1.254,1.302,2.46,1.841,3.571l5.365,11.158l5.349-11.158  c0.54-1.111,1.175-2.317,1.841-3.571c2.063-3.857,4.412-8.238,4.412-11.571C33.539,10.651,32.237,7.746,30.142,5.651L30.142,5.651z"
     fill="#006DF0"
     id="path3"
     style="fill:#ff0000" /><g
     id="g5" /><g
     id="g7" /><g
     id="g9" /><g
     id="g11" /><g
     id="g13" /><g
     id="g15" /><g
     id="g17" /><g
     id="g19" /><g
     id="g21" /><g
     id="g23" /><g
     id="g25" /><g
     id="g27" /><g
     id="g29" /><g
     id="g31" /><g
     id="g33" /></svg>